<mxfile host="app.diagrams.net" modified="2024-06-02T05:39:25.696Z" agent="Mozilla/5.0 (Windows NT 10.0; Win64; x64) AppleWebKit/537.36 (KHTML, like Gecko) Chrome/125.0.0.0 Safari/537.36" etag="2uN70U5xeei1OdAArdkk" version="24.4.13" type="device">
  <diagram id="zELgq5tSNa7VBjCSv0Qw" name="Trang-1">
    <mxGraphModel dx="2712" dy="1845" grid="0" gridSize="10" guides="1" tooltips="1" connect="1" arrows="1" fold="1" page="0" pageScale="1" pageWidth="827" pageHeight="1169" math="0" shadow="0">
      <root>
        <mxCell id="0" />
        <mxCell id="1" parent="0" />
        <mxCell id="TNIJo72slnBepN6M8ajg-1" value="Start" style="ellipse;whiteSpace=wrap;html=1;fontStyle=1;fontFamily=Helvetica;fontSize=18;strokeWidth=2;fillColor=#60a917;strokeColor=#60A917;fontColor=#ffffff;" parent="1" vertex="1">
          <mxGeometry x="-700" y="-250" width="200" height="90" as="geometry" />
        </mxCell>
        <mxCell id="TNIJo72slnBepN6M8ajg-5" value="Trigger Pulse from MCUs&lt;div style=&quot;font-size: 18px;&quot;&gt;to Sensor&lt;/div&gt;" style="shape=parallelogram;perimeter=parallelogramPerimeter;whiteSpace=wrap;html=1;fixedSize=1;fontStyle=1;fontFamily=Helvetica;fontSize=18;strokeWidth=2;fillColor=#009999;fontColor=#ffffff;strokeColor=#009999;" parent="1" vertex="1">
          <mxGeometry x="-440" y="-250" width="210" height="90" as="geometry" />
        </mxCell>
        <mxCell id="TNIJo72slnBepN6M8ajg-6" value="Run the function calculated distance" style="rounded=0;whiteSpace=wrap;html=1;fontStyle=1;fontFamily=Helvetica;fontSize=18;strokeWidth=2;fillColor=#8B4CA6;fontColor=#ffffff;strokeColor=#8B4CA6;" parent="1" vertex="1">
          <mxGeometry x="330" y="-250" width="200" height="90" as="geometry" />
        </mxCell>
        <mxCell id="TNIJo72slnBepN6M8ajg-7" value="Signal Echo&lt;div style=&quot;font-size: 18px;&quot;&gt;measured object&lt;/div&gt;" style="shape=parallelogram;perimeter=parallelogramPerimeter;whiteSpace=wrap;html=1;fixedSize=1;fontStyle=1;fontFamily=Helvetica;fontSize=18;strokeWidth=2;fillColor=#009999;fontColor=#ffffff;strokeColor=#009999;" parent="1" vertex="1">
          <mxGeometry x="90" y="-250" width="200" height="90" as="geometry" />
        </mxCell>
        <mxCell id="TNIJo72slnBepN6M8ajg-18" value="&lt;div style=&quot;font-size: 18px;&quot;&gt;The data&lt;/div&gt;detected distance object" style="shape=parallelogram;perimeter=parallelogramPerimeter;whiteSpace=wrap;html=1;fixedSize=1;fontStyle=1;fontFamily=Helvetica;fontSize=18;strokeWidth=2;fillColor=#009999;fontColor=#ffffff;strokeColor=#009999;" parent="1" vertex="1">
          <mxGeometry x="590" y="-250" width="200" height="90" as="geometry" />
        </mxCell>
        <mxCell id="cNTWVorDY8vXj64ZJKox-7" value="" style="endArrow=classic;html=1;rounded=0;strokeWidth=2;exitX=1;exitY=0.5;exitDx=0;exitDy=0;entryX=0.03;entryY=0.489;entryDx=0;entryDy=0;entryPerimeter=0;" edge="1" parent="1" source="TNIJo72slnBepN6M8ajg-1" target="TNIJo72slnBepN6M8ajg-5">
          <mxGeometry width="50" height="50" relative="1" as="geometry">
            <mxPoint x="-480" y="-270" as="sourcePoint" />
            <mxPoint x="-430" y="-320" as="targetPoint" />
          </mxGeometry>
        </mxCell>
        <mxCell id="cNTWVorDY8vXj64ZJKox-8" value="" style="endArrow=classic;html=1;rounded=0;strokeWidth=2;entryX=0;entryY=0.5;entryDx=0;entryDy=0;exitX=1;exitY=0.5;exitDx=0;exitDy=0;" edge="1" parent="1" source="TNIJo72slnBepN6M8ajg-5" target="cNTWVorDY8vXj64ZJKox-12">
          <mxGeometry width="50" height="50" relative="1" as="geometry">
            <mxPoint x="-240" y="-320" as="sourcePoint" />
            <mxPoint x="-190" y="-370" as="targetPoint" />
          </mxGeometry>
        </mxCell>
        <mxCell id="cNTWVorDY8vXj64ZJKox-9" value="" style="endArrow=classic;html=1;rounded=0;strokeWidth=2;entryX=0.055;entryY=0.478;entryDx=0;entryDy=0;entryPerimeter=0;exitX=1;exitY=0.5;exitDx=0;exitDy=0;" edge="1" parent="1" source="TNIJo72slnBepN6M8ajg-6" target="TNIJo72slnBepN6M8ajg-18">
          <mxGeometry width="50" height="50" relative="1" as="geometry">
            <mxPoint x="620" y="-280" as="sourcePoint" />
            <mxPoint x="670" y="-330" as="targetPoint" />
          </mxGeometry>
        </mxCell>
        <mxCell id="cNTWVorDY8vXj64ZJKox-11" value="End" style="ellipse;whiteSpace=wrap;html=1;fontStyle=1;fontFamily=Helvetica;fontSize=18;strokeWidth=2;fillColor=#60a917;strokeColor=#60A917;fontColor=#ffffff;" vertex="1" parent="1">
          <mxGeometry x="830" y="-250" width="200" height="90" as="geometry" />
        </mxCell>
        <mxCell id="cNTWVorDY8vXj64ZJKox-12" value="Module Sensor" style="rounded=0;whiteSpace=wrap;html=1;fontStyle=1;fontFamily=Helvetica;fontSize=18;strokeWidth=2;fillColor=#8B4CA6;fontColor=#ffffff;strokeColor=#8B4CA6;" vertex="1" parent="1">
          <mxGeometry x="-170" y="-250" width="200" height="90" as="geometry" />
        </mxCell>
        <mxCell id="cNTWVorDY8vXj64ZJKox-13" value="Flow Chart 5.1.1" style="text;html=1;align=center;verticalAlign=middle;whiteSpace=wrap;rounded=0;fontSize=42;fontStyle=1" vertex="1" parent="1">
          <mxGeometry x="-40" y="-420" width="360" height="120" as="geometry" />
        </mxCell>
        <mxCell id="cNTWVorDY8vXj64ZJKox-14" value="" style="endArrow=classic;html=1;rounded=0;strokeWidth=2;entryX=0;entryY=0.5;entryDx=0;entryDy=0;exitX=1;exitY=0.5;exitDx=0;exitDy=0;" edge="1" parent="1" source="cNTWVorDY8vXj64ZJKox-12" target="TNIJo72slnBepN6M8ajg-7">
          <mxGeometry width="50" height="50" relative="1" as="geometry">
            <mxPoint x="50" y="-360" as="sourcePoint" />
            <mxPoint x="120" y="-360" as="targetPoint" />
          </mxGeometry>
        </mxCell>
        <mxCell id="cNTWVorDY8vXj64ZJKox-15" value="" style="endArrow=classic;html=1;rounded=0;strokeWidth=2;entryX=0;entryY=0.5;entryDx=0;entryDy=0;exitX=1;exitY=0.5;exitDx=0;exitDy=0;" edge="1" parent="1" source="TNIJo72slnBepN6M8ajg-7" target="TNIJo72slnBepN6M8ajg-6">
          <mxGeometry width="50" height="50" relative="1" as="geometry">
            <mxPoint x="240" y="-300" as="sourcePoint" />
            <mxPoint x="310" y="-300" as="targetPoint" />
          </mxGeometry>
        </mxCell>
        <mxCell id="cNTWVorDY8vXj64ZJKox-17" value="" style="endArrow=classic;html=1;rounded=0;strokeWidth=2;entryX=0;entryY=0.5;entryDx=0;entryDy=0;exitX=1;exitY=0.5;exitDx=0;exitDy=0;" edge="1" parent="1" source="TNIJo72slnBepN6M8ajg-18" target="cNTWVorDY8vXj64ZJKox-11">
          <mxGeometry width="50" height="50" relative="1" as="geometry">
            <mxPoint x="640" y="-260" as="sourcePoint" />
            <mxPoint x="690" y="-310" as="targetPoint" />
          </mxGeometry>
        </mxCell>
        <mxCell id="cNTWVorDY8vXj64ZJKox-35" value="" style="group" vertex="1" connectable="0" parent="1">
          <mxGeometry x="723" y="-143" width="307" height="119" as="geometry" />
        </mxCell>
        <mxCell id="cNTWVorDY8vXj64ZJKox-32" value="" style="rounded=0;whiteSpace=wrap;html=1;" vertex="1" parent="cNTWVorDY8vXj64ZJKox-35">
          <mxGeometry width="307" height="119" as="geometry" />
        </mxCell>
        <mxCell id="cNTWVorDY8vXj64ZJKox-22" value="" style="rounded=0;whiteSpace=wrap;html=1;fillColor=#8B4CA6;strokeColor=#8B4CA6;" vertex="1" parent="cNTWVorDY8vXj64ZJKox-35">
          <mxGeometry x="17" y="86" width="175" height="24" as="geometry" />
        </mxCell>
        <mxCell id="cNTWVorDY8vXj64ZJKox-26" value="" style="rounded=0;whiteSpace=wrap;html=1;fillColor=#009999;strokeColor=#009999;" vertex="1" parent="cNTWVorDY8vXj64ZJKox-35">
          <mxGeometry x="17" y="62" width="175" height="24" as="geometry" />
        </mxCell>
        <mxCell id="cNTWVorDY8vXj64ZJKox-27" value="" style="rounded=0;whiteSpace=wrap;html=1;fillColor=#60A917;strokeColor=#60A917;" vertex="1" parent="cNTWVorDY8vXj64ZJKox-35">
          <mxGeometry x="17" y="38" width="175" height="24" as="geometry" />
        </mxCell>
        <mxCell id="cNTWVorDY8vXj64ZJKox-28" value="Legend" style="text;html=1;align=center;verticalAlign=middle;whiteSpace=wrap;rounded=0;fontStyle=5;fontSize=19;" vertex="1" parent="cNTWVorDY8vXj64ZJKox-35">
          <mxGeometry x="74.5" y="2" width="60" height="30" as="geometry" />
        </mxCell>
        <mxCell id="cNTWVorDY8vXj64ZJKox-29" value="Start/ End Point" style="text;html=1;align=left;verticalAlign=middle;whiteSpace=wrap;rounded=0;fontStyle=1;fontSize=14;" vertex="1" parent="cNTWVorDY8vXj64ZJKox-35">
          <mxGeometry x="196" y="35" width="109" height="30" as="geometry" />
        </mxCell>
        <mxCell id="cNTWVorDY8vXj64ZJKox-30" value="Input/ Output" style="text;html=1;align=left;verticalAlign=middle;whiteSpace=wrap;rounded=0;fontStyle=1;fontSize=14;" vertex="1" parent="cNTWVorDY8vXj64ZJKox-35">
          <mxGeometry x="196" y="59" width="94" height="30" as="geometry" />
        </mxCell>
        <mxCell id="cNTWVorDY8vXj64ZJKox-31" value="Task" style="text;html=1;align=left;verticalAlign=middle;whiteSpace=wrap;rounded=0;fontStyle=1;fontSize=14;" vertex="1" parent="cNTWVorDY8vXj64ZJKox-35">
          <mxGeometry x="196" y="83" width="81" height="30" as="geometry" />
        </mxCell>
      </root>
    </mxGraphModel>
  </diagram>
</mxfile>
